<?xml version="1.0" encoding="UTF-8" standalone="no"?>
<svg
   xmlns:dc="http://purl.org/dc/elements/1.1/"
   xmlns:cc="http://creativecommons.org/ns#"
   xmlns:rdf="http://www.w3.org/1999/02/22-rdf-syntax-ns#"
   xmlns:svg="http://www.w3.org/2000/svg"
   xmlns="http://www.w3.org/2000/svg"
   xmlns:sodipodi="http://sodipodi.sourceforge.net/DTD/sodipodi-0.dtd"
   xmlns:inkscape="http://www.inkscape.org/namespaces/inkscape"
   viewBox="0 0 512 512"
   id="svg4133"
   version="1.1"
   inkscape:version="0.48.2 r9819"
   width="100%"
   height="100%"
   sodipodi:docname="explore.svg">
  <metadata
     id="metadata4187">
    <rdf:RDF>
      <cc:Work
         rdf:about="">
        <dc:format>image/svg+xml</dc:format>
        <dc:type
           rdf:resource="http://purl.org/dc/dcmitype/StillImage" />
      </cc:Work>
    </rdf:RDF>
  </metadata>
  <defs
     id="defs4185" />
  <sodipodi:namedview
     pagecolor="#000000"
     bordercolor="#666666"
     borderopacity="1"
     objecttolerance="10"
     gridtolerance="10"
     guidetolerance="10"
     inkscape:pageopacity="1"
     inkscape:pageshadow="2"
     inkscape:window-width="1920"
     inkscape:window-height="1152"
     id="namedview4183"
     showgrid="false"
     inkscape:zoom="0.4609375"
     inkscape:cx="256"
     inkscape:cy="256"
     inkscape:window-x="0"
     inkscape:window-y="0"
     inkscape:window-maximized="1"
     inkscape:current-layer="svg4133" />
  <path
     style="opacity:1;fill:#ffffff;fill-opacity:1;stroke:none"
     d="m 224.15381,312.47894 c -19.71327,-4.77598 -35.92346,-13.90563 -50.92232,-28.67969 -41.95498,-41.32619 -42.27079,-105.47334 -0.72683,-147.63493 36.2207,-36.759198 92.66555,-42.318895 133.41226,-13.14082 6.6718,4.77757 12.13054,9.52224 12.13054,10.54372 0,2.4754 -12.72072,13.09041 -15.68716,13.09041 -1.28551,0 -5.70872,-3.93876 -9.82936,-8.7528 -4.12063,-4.81403 -11.38983,-10.74128 -16.15376,-13.17166 l -8.66169,-4.41886 1.42762,9.37504 c 3.68441,24.19525 8.67847,45.51264 14.24665,60.81257 5.989,16.45623 6.01625,16.74811 1.69187,18.12062 -6.54558,2.07748 -21.28321,16.11513 -21.1924,20.18584 0.11874,5.3228 14.45667,15.16599 27.69871,19.01555 l 11.72502,3.40856 8.65608,-8.35523 c 10.82863,-10.45227 25.75201,-31.11436 32.42116,-44.88855 4.62649,-9.55535 5.21185,-10.04303 6.5101,-5.42372 4.40687,15.6801 -0.32443,45.49847 -10.36235,65.30735 -8.40788,16.59215 -32.15919,39.40364 -48.95762,47.02041 -23.66939,10.73222 -44.68253,13.09642 -67.42652,7.58619 z m 50.50382,-22.15517 c 0,-2.69489 -26.43733,-27.87888 -33.9477,-32.3383 -6.74417,-4.00448 -6.79354,-4.15819 -3.97193,-12.36571 1.57142,-4.57095 5.90587,-12.10457 9.63212,-16.74139 6.39344,-7.95578 6.63287,-8.90491 4.25151,-16.8532 -2.98788,-9.97267 -18.10196,-30.81989 -28.64426,-39.50975 l -7.48079,-6.16629 -1.26108,10.64778 c -1.71345,14.46739 -7.14194,24.75744 -11.94485,22.64223 -6.28498,-2.7679 -33.74116,-3.55778 -39.98896,-1.15043 -4.83551,1.86318 -5.96122,3.64513 -5.94035,9.40336 0.0367,10.13331 5.08906,27.77997 12.46837,43.5492 6.08413,13.00147 7.01107,13.88672 21.56458,20.59487 24.96884,11.50889 85.26334,24.44109 85.26334,18.28763 z"
     id="path4190"
     inkscape:connector-curvature="0" />
  <path
     style="opacity:1;fill:#ffffff;fill-opacity:1;stroke:none"
     d="m 180.42123,484.83905 c 11.79553,-12.52808 40.05784,-34.1811 56.36084,-43.18056 l 16.18064,-8.93191 0,-10.39073 0,-10.39076 -15.72358,-0.3968 c -33.74359,-0.85157 -71.34285,-13.11167 -101.37625,-33.05604 -13.10835,-8.70489 -16.64462,-10.19893 -18.44068,-7.79102 -1.22221,1.6386 -5.65142,6.96336 -9.84268,11.8328 l -7.620478,8.85357 -6.086782,-5.23564 -6.086783,-5.23563 10.265823,-12.01627 10.26582,-12.01627 -9.856706,-10.19783 C 88.188266,336.05832 75.064407,318.65667 75.064407,315.6639 c 0,-0.9529 7.935263,-6.61595 17.633918,-12.58455 l 17.633915,-10.85201 5.26639,7.76045 5.26639,7.76046 -4.45963,4.74707 c -5.88056,6.25957 -5.65836,7.93088 2.03424,15.30086 l 6.49387,6.22151 5.9807,-5.27325 c 3.2894,-2.90029 10.37394,-10.00808 15.74343,-15.79511 l 9.76271,-10.52186 6.04326,4.77392 6.04326,4.7739 -9.76375,11.4286 c -5.37006,6.28571 -9.17762,12.01471 -8.46125,12.73107 0.71638,0.71639 -0.29415,3.7393 -2.24561,6.71762 -4.84196,7.38976 -4.61922,8.09298 4.41857,13.9505 l 7.91298,5.12853 3.94413,-5.12853 c 2.16927,-2.82066 3.96584,-5.84802 3.99237,-6.72742 0.0265,-0.8794 4.44497,0.53717 9.81874,3.14795 8.08465,3.92783 9.52589,5.51388 8.35285,9.19214 -2.72194,8.53506 -1.79401,10.43358 6.534,13.36845 9.86614,3.47694 11.43996,2.83963 13.24133,-5.36198 1.34828,-6.13869 1.37441,-6.14717 12.27993,-3.99089 10.92774,2.16068 10.92864,2.16157 9.56491,9.43089 -1.28206,6.83396 -1.00014,7.27176 4.70055,7.2996 3.33542,0.0174 8.26102,0.6183 10.94576,1.33779 4.48349,1.20153 4.88136,0.58019 4.88136,-7.62285 l 0,-8.931 10.74915,0 c 10.60157,0 10.76904,0.10609 12.19805,7.72333 0.95679,5.1001 2.41158,7.3539 4.28323,6.63567 1.55888,-0.59819 6.3206,-1.74167 10.58161,-2.54104 4.26099,-0.79937 7.74728,-1.59525 7.74728,-1.76863 0,-0.17335 -0.92108,-3.52684 -2.04683,-7.45212 -1.86012,-6.48585 -1.55455,-7.32403 3.34994,-9.18871 13.43718,-5.1088 15.26046,-4.89802 18.15886,2.09931 1.51764,3.66392 3.16793,6.66168 3.66733,6.66168 1.9674,0 18.09104,-8.83633 18.09104,-9.91453 0,-0.63162 -1.4331,-3.91971 -3.18468,-7.30687 -3.12043,-6.03424 -3.01735,-6.2692 5.1085,-11.64663 l 8.29316,-5.48816 5.39516,5.39513 5.39513,5.39514 6.8523,-5.76582 c 7.96316,-6.70056 8.47954,-9.74347 2.56225,-15.09855 -4.25124,-3.84731 -4.22987,-3.95841 2.36087,-12.27991 l 6.6509,-8.39745 6.44545,4.58956 c 6.25087,4.45101 6.53616,4.46772 9.45007,0.55383 8.49941,-11.41624 8.80449,-13.74872 2.45987,-18.80774 l -5.98593,-4.77301 3.972,-8.87172 c 3.31237,-7.39843 4.6854,-8.59303 8.26795,-7.19354 8.5719,3.34855 11.15464,2.14259 13.71529,-6.40414 3.29226,-10.98859 3.48071,-10.37629 -3.99558,-12.98254 -6.78871,-2.36655 -7.38111,-4.09754 -5.17578,-15.12415 1.15997,-5.79982 2.35503,-6.74884 9.22034,-7.32204 7.76351,-0.64819 7.89806,-0.82073 8.54888,-10.96364 l 0.66124,-10.30508 -7.45906,0 c -7.98103,0 -10.04281,-3.20924 -10.10499,-15.72881 -0.0234,-4.73979 0.97374,-5.97293 4.85174,-5.99933 8.6696,-0.059 10.56886,-2.71934 8.60668,-12.0556 -1.70797,-8.12683 -2.17695,-8.52134 -10.12955,-8.52134 -7.77704,0 -8.54276,-0.58447 -11.36907,-8.67797 -2.70561,-7.74789 -2.6511,-8.91049 0.50853,-10.84746 10.58102,-6.48655 10.47708,-6.18709 5.51964,-15.90449 l -4.64082,-9.09674 -6.80433,3.51865 c -6.57534,3.40024 -6.94053,3.34636 -10.8518,-1.60108 -8.42359,-10.65517 -8.71912,-12.31406 -2.87596,-16.14264 3.00323,-1.9678 5.46041,-4.3669 5.46041,-5.33133 0,-2.679076 -10.95276,-15.103386 -13.31453,-15.103386 -1.14476,0 -8.85298,6.866328 -17.12942,15.258506 -14.95352,15.16267 -15.08233,15.23605 -20.50545,11.68269 -3.00156,-1.9667 -5.45738,-4.38043 -5.45738,-5.36385 0,-0.98341 3.90509,-6.3 8.67797,-11.814634 4.77288,-5.514632 8.67797,-11.465986 8.67797,-13.225227 0,-1.75924 1.52615,-5.527803 3.39141,-8.374586 3.27856,-5.003696 3.11608,-5.36489 -4.88136,-10.852324 l -8.27277,-5.676357 -5.10529,6.519517 -5.10529,6.519517 -8.56782,-4.370968 c -9.67725,-4.936971 -9.68953,-4.16686 0.44477,-27.922779 3.30316,-7.742963 7.08037,-14.436325 8.3938,-14.874137 2.84351,-0.947837 28.0542,12.592022 40.31272,21.650672 l 8.67796,6.412741 10.09929,-11.372132 c 10.08887,-11.360386 10.10512,-11.368322 15.72881,-7.68353 3.09624,2.028732 5.62953,4.582992 5.62953,5.676134 0,1.093141 -3.90509,6.499505 -8.67797,12.014137 -4.77288,5.514633 -8.66512,10.699433 -8.64943,11.521779 0.0152,0.822344 5.84799,8.329069 12.96069,16.681611 47.52772,55.812546 61.5268,132.573346 36.59817,200.677966 -21.51968,58.79144 -76.56131,110.20147 -133.76236,124.93681 l -15.62164,4.02423 0,13.26829 0,13.26826 16.12077,8.29308 c 18.77795,9.65998 39.51004,24.80985 53.21229,38.88455 l 9.67205,9.93495 -96.31523,0 -96.31523,0 6.372,-6.76773 0,0 z"
     id="path4192"
     inkscape:connector-curvature="0" />
</svg>
