<?xml version="1.0" encoding="UTF-8" standalone="no"?>
<svg
   xmlns:dc="http://purl.org/dc/elements/1.1/"
   xmlns:cc="http://creativecommons.org/ns#"
   xmlns:rdf="http://www.w3.org/1999/02/22-rdf-syntax-ns#"
   xmlns:svg="http://www.w3.org/2000/svg"
   xmlns="http://www.w3.org/2000/svg"
   xmlns:sodipodi="http://sodipodi.sourceforge.net/DTD/sodipodi-0.dtd"
   xmlns:inkscape="http://www.inkscape.org/namespaces/inkscape"
   viewBox="0 0 512 512"
   id="svg4247"
   version="1.1"
   inkscape:version="0.48.2 r9819"
   width="100%"
   height="100%"
   sodipodi:docname="guild.svg">
  <metadata
     id="metadata4263">
    <rdf:RDF>
      <cc:Work
         rdf:about="">
        <dc:format>image/svg+xml</dc:format>
        <dc:type
           rdf:resource="http://purl.org/dc/dcmitype/StillImage" />
      </cc:Work>
    </rdf:RDF>
  </metadata>
  <defs
     id="defs4261" />
  <sodipodi:namedview
     pagecolor="#000000"
     bordercolor="#666666"
     borderopacity="1"
     objecttolerance="10"
     gridtolerance="10"
     guidetolerance="10"
     inkscape:pageopacity="1"
     inkscape:pageshadow="2"
     inkscape:window-width="1920"
     inkscape:window-height="1152"
     id="namedview4259"
     showgrid="false"
     inkscape:zoom="0.4609375"
     inkscape:cx="256"
     inkscape:cy="256"
     inkscape:window-x="0"
     inkscape:window-y="0"
     inkscape:window-maximized="1"
     inkscape:current-layer="svg4247" />
  <path
     style="fill:#ffffff;fill-opacity:1;stroke:none"
     d="M 236.54075,483.23467 C 184.61151,462.73933 138.67537,418.68607 110.00025,361.88099 83.976654,310.32854 65.559821,240.33569 56.509365,158.58983 53.734045,133.52248 48.297159,23.006795 49.766968,21.536986 c 0.237426,-0.237425 10.663766,0.903483 23.169645,2.535351 68.488997,8.936997 98.291877,10.66024 184.365077,10.66024 86.07321,0 115.87608,-1.723243 184.36509,-10.66024 12.50588,-1.631868 22.92705,-2.777949 23.15815,-2.546847 1.15458,1.154595 -3.78173,127.23215 -5.7912,147.9118 -8.24789,84.87971 -22.97342,143.82787 -48.93564,195.89562 -31.05063,62.27268 -70.18454,98.02956 -128.76925,117.65724 -10.58389,3.54592 -21.54011,6.41353 -24.34716,6.37246 -2.80704,-0.041 -12.00546,-2.79864 -20.44093,-6.12794 l 0,0 z m 53.99439,-20.8878 c 26.61445,-11.41016 39.92059,-20.30753 60.06549,-40.16382 26.79008,-26.40623 43.5486,-53.50424 59.48679,-96.18829 7.69352,-20.60396 18.57421,-60.1019 21.77414,-79.04221 l 1.55035,-9.17628 -86.97036,0 -86.97036,0 0,-91.94008 0,-91.94008 -36.33899,-1.439421 C 174.22042,50.519248 131.9985,47.493949 97.091026,43.42554 81.164989,41.569388 67.571747,40.613565 66.883823,41.301489 c -1.843529,1.843527 3.335341,93.416471 7.066363,124.947661 3.18338,26.90301 8.84113,62.56283 11.090261,69.9 1.082685,3.53196 7.127244,3.79661 86.712533,3.79661 l 85.54871,0 0,116.30924 0,116.30924 8.1356,-1.47265 c 4.47457,-0.80998 15.7686,-4.74509 25.09785,-8.74472 l 0,0 z"
     id="path4265"
     inkscape:connector-curvature="0" />
</svg>
