<?xml version="1.0" encoding="UTF-8" standalone="no"?>
<svg
   xmlns:dc="http://purl.org/dc/elements/1.1/"
   xmlns:cc="http://creativecommons.org/ns#"
   xmlns:rdf="http://www.w3.org/1999/02/22-rdf-syntax-ns#"
   xmlns:svg="http://www.w3.org/2000/svg"
   xmlns="http://www.w3.org/2000/svg"
   xmlns:sodipodi="http://sodipodi.sourceforge.net/DTD/sodipodi-0.dtd"
   xmlns:inkscape="http://www.inkscape.org/namespaces/inkscape"
   viewBox="0 0 512 512"
   id="svg4324"
   version="1.1"
   inkscape:version="0.48.2 r9819"
   width="100%"
   height="100%"
   sodipodi:docname="inventory.svg">
  <metadata
     id="metadata4344">
    <rdf:RDF>
      <cc:Work
         rdf:about="">
        <dc:format>image/svg+xml</dc:format>
        <dc:type
           rdf:resource="http://purl.org/dc/dcmitype/StillImage" />
      </cc:Work>
    </rdf:RDF>
  </metadata>
  <defs
     id="defs4342" />
  <sodipodi:namedview
     pagecolor="#000000"
     bordercolor="#666666"
     borderopacity="1"
     objecttolerance="10"
     gridtolerance="10"
     guidetolerance="10"
     inkscape:pageopacity="1"
     inkscape:pageshadow="2"
     inkscape:window-width="1920"
     inkscape:window-height="1152"
     id="namedview4340"
     showgrid="false"
     inkscape:zoom="0.4609375"
     inkscape:cx="256"
     inkscape:cy="256"
     inkscape:window-x="0"
     inkscape:window-y="0"
     inkscape:window-maximized="1"
     inkscape:current-layer="svg4324" />
  <path
     style="fill:#ffffff;fill-opacity:1;stroke:none"
     d="m 180.87339,205.27482 c -10.41524,-2.19602 -27.01185,-6.61279 -36.88136,-9.81504 -19.70022,-6.39191 -73.379534,-31.77786 -77.374974,-36.59207 -1.923481,-2.31766 -0.683128,-18.45013 5.296219,-68.884513 4.294363,-36.221943 8.087248,-66.137393 8.428634,-66.478779 0.341386,-0.341385 13.20547,0.828425 28.586851,2.599579 27.64942,3.183809 83.12887,7.714167 94.67802,7.731247 l 5.9661,0.0088 0,87.864402 0,87.86441 -4.88135,-0.15265 c -2.68475,-0.084 -13.40291,-1.94939 -23.81814,-4.14541 z"
     id="path4346"
     inkscape:connector-curvature="0" />
  <path
     style="fill:#ffffff;fill-opacity:1;stroke:none"
     d="m 231.2678,132.55593 0,-113.898303 23.8644,0 23.86441,0 0,113.898303 0,113.89831 -23.86441,0 -23.8644,0 0,-113.89831 z"
     id="path4348"
     inkscape:connector-curvature="0" />
  <path
     style="fill:#ffffff;fill-opacity:1;stroke:none"
     d="m 298.52203,120.56949 0,-86.725422 14.64407,-0.0088 c 15.67763,-0.0094 74.9393,-5.199775 98.15166,-8.59647 7.74612,-1.1335 14.66495,-1.369492 15.37519,-0.524427 0.71023,0.845065 4.93092,29.360211 9.3793,63.366991 4.44838,34.006784 8.53107,63.389924 9.07265,65.295864 2.45169,8.62816 -92.03472,44.28681 -139.57202,52.67373 l -7.05085,1.24397 0,-86.72543 z"
     id="path4350"
     inkscape:connector-curvature="0" />
  <path
     style="fill:#ffffff;fill-opacity:1;stroke:none"
     d="m 182.45424,488.32345 c -29.28338,-3.40645 -44.66091,-6.0808 -77.6621,-13.50641 l -25.594294,-5.75896 1.187022,-10.96294 c 4.336536,-40.05078 6.197505,-92.1797 6.132098,-171.77048 l -0.0751,-91.38382 19.084243,8.27729 c 29.22092,12.67381 57.63291,20.64666 95.91118,26.91419 7.57411,1.24015 8.13559,1.84936 8.13559,8.827 l 0,7.49492 -18.44068,0 -18.44067,0 0,72.67796 0,72.67797 18.28457,0 18.28456,0 1.36814,12.47458 c 3.6324,33.12013 18.65075,50.85687 43.36237,51.21117 24.3008,0.3484 41.9257,-19.12669 44.03893,-48.66198 l 1.07494,-15.02377 18.14919,0 18.14916,0 0,-72.67797 0,-72.67796 -18.56542,0 -18.56543,0 0.66712,-9.00106 0.66712,-9.00105 19.21321,-3.87829 c 26.23325,-5.29532 58.9645,-15.16211 84.71541,-25.53736 l 21.48795,-8.65766 -1.21171,54.61398 c -1.1323,51.03546 0.40056,125.95626 3.98504,194.77424 l 1.53738,29.51617 -5.20263,1.14517 c -40.80872,8.9826 -76.29314,15.23816 -101.56878,17.90557 -37.0976,3.915 -106.40771,3.90981 -140.10841,-0.0109 l 0,3.5e-4 z"
     id="path4352"
     inkscape:connector-curvature="0" />
  <path
     style="fill:#ffffff;fill-opacity:1;stroke:none"
     d="m 233.43729,316.96271 0,-14.10169 21.69491,0 21.69492,0 0,14.10169 0,14.1017 -21.69492,0 -21.69491,0 0,-14.1017 z"
     id="path4356"
     inkscape:connector-curvature="0" />
  <path
     style="fill:#ffffff;fill-opacity:1;stroke:none"
     d="m 194.38644,318.04746 0,-52.0678 60.74576,0 60.74577,0 0,52.0678 0,52.06779 -60.74577,0 -60.74576,0 0,-52.06779 z m 101.9661,0 0,-34.71187 -42.30508,0 -42.30509,0 0,34.71187 0,34.71186 42.30509,0 42.30508,0 0,-34.71186 z"
     id="path4358"
     inkscape:connector-curvature="0" />
  <path
     style="fill:#ffffff;fill-opacity:1;stroke:none"
     d="m 242.1529,429.06294 c -6.51145,-6.51146 -10.85305,-18.57109 -10.873,-30.20192 l -0.0121,-7.05085 24.1439,0 24.1439,0 -1.50745,11.36375 c -2.00044,15.08008 -6.96105,25.00879 -14.42279,28.86741 -9.01453,4.66159 -14.60838,3.88568 -21.47246,-2.97839 z"
     id="path4360"
     inkscape:connector-curvature="0" />
</svg>
