<?xml version="1.0" encoding="UTF-8" standalone="no"?>
<svg
   xmlns:dc="http://purl.org/dc/elements/1.1/"
   xmlns:cc="http://creativecommons.org/ns#"
   xmlns:rdf="http://www.w3.org/1999/02/22-rdf-syntax-ns#"
   xmlns:svg="http://www.w3.org/2000/svg"
   xmlns="http://www.w3.org/2000/svg"
   xmlns:sodipodi="http://sodipodi.sourceforge.net/DTD/sodipodi-0.dtd"
   xmlns:inkscape="http://www.inkscape.org/namespaces/inkscape"
   viewBox="0 0 512 512"
   id="svg4727"
   version="1.1"
   inkscape:version="0.48.2 r9819"
   width="100%"
   height="100%"
   sodipodi:docname="property.svg">
  <metadata
     id="metadata4763">
    <rdf:RDF>
      <cc:Work
         rdf:about="">
        <dc:format>image/svg+xml</dc:format>
        <dc:type
           rdf:resource="http://purl.org/dc/dcmitype/StillImage" />
      </cc:Work>
    </rdf:RDF>
  </metadata>
  <defs
     id="defs4761" />
  <sodipodi:namedview
     pagecolor="#000000"
     bordercolor="#666666"
     borderopacity="1"
     objecttolerance="10"
     gridtolerance="10"
     guidetolerance="10"
     inkscape:pageopacity="1"
     inkscape:pageshadow="2"
     inkscape:window-width="1920"
     inkscape:window-height="1152"
     id="namedview4759"
     showgrid="false"
     inkscape:zoom="0.921875"
     inkscape:cx="256"
     inkscape:cy="256"
     inkscape:window-x="0"
     inkscape:window-y="0"
     inkscape:window-maximized="1"
     inkscape:current-layer="svg4727" />
  <path
     style="fill:#ffffff;fill-opacity:1;stroke:none"
     d="m 104.80631,162.54915 c 0.0109,-0.44746 0.72919,-5.80302 1.59613,-11.90126 4.80352,-33.78903 16.94565,-60.176319 37.97803,-82.533868 7.52988,-8.004307 20.9998,-19.734361 22.66147,-19.734361 0.36287,0 0.65975,25.871186 0.65975,57.491529 l 0,57.49152 -31.45762,0 c -17.3017,0 -31.44869,-0.3661 -31.43776,-0.81356 z"
     id="path4765"
     inkscape:connector-curvature="0" />
  <path
     style="fill:#ffffff;fill-opacity:1;stroke:none"
     d="m 187.22712,99.444969 0,-63.917743 11.11864,-4.344646 c 17.55077,-6.858018 39.31383,-12.072925 50.44068,-12.086693 l 3.52542,-0.0044 0,72.135594 0,72.135591 -32.54237,0 -32.54237,0 0,-63.917741 z"
     id="path4767"
     inkscape:connector-curvature="0" />
  <path
     style="fill:#ffffff;fill-opacity:1;stroke:none"
     d="m 271.83729,90.664079 0,-72.698633 2.44068,0.507555 c 1.34237,0.279155 5.85762,0.816752 10.03389,1.19466 14.0869,1.274714 39.30108,8.307422 50.44453,14.069924 l 3.25039,1.680839 0,63.972144 0,63.972142 -33.08475,0 -33.08474,0 0,-72.698631 z"
     id="path4769"
     inkscape:connector-curvature="0" />
  <path
     style="fill:#ffffff;fill-opacity:1;stroke:none"
     d="m 357.5322,105.25495 0,-58.107765 3.52543,2.429976 c 1.93898,1.336487 8.48879,7.393228 14.55513,13.459424 15.005,15.004638 24.71233,30.072152 31.85544,49.445315 5.37792,14.58569 7.17901,22.92081 10.23277,47.35539 l 0.4406,3.52542 -30.30468,0 -30.30469,0 0,-58.10776 z"
     id="path4771"
     inkscape:connector-curvature="0" />
  <path
     style="fill:#ffffff;fill-opacity:1;stroke:none"
     d="m 438.88814,153.05763 0,-9.22034 9.76271,0 9.76271,0 0,9.22034 0,9.22034 -9.76271,0 -9.76271,0 0,-9.22034 z"
     id="path4773"
     inkscape:connector-curvature="0" />
  <path
     style="fill:#ffffff;fill-opacity:1;stroke:none"
     d="m 438.88814,198.07458 0,-15.18644 9.76271,0 9.76271,0 0,15.18644 0,15.18644 -9.76271,0 -9.76271,0 0,-15.18644 z"
     id="path4775"
     inkscape:connector-curvature="0" />
  <path
     style="fill:#ffffff;fill-opacity:1;stroke:none"
     d="m 438.88814,242.00678 0,-8.13559 9.76271,0 9.76271,0 0,8.13559 0,8.13559 -9.76271,0 -9.76271,0 0,-8.13559 z"
     id="path4777"
     inkscape:connector-curvature="0" />
  <path
     style="fill:#ffffff;fill-opacity:1;stroke:none"
     d="m 85.261017,198.07458 0,-15.18644 167.050843,0 167.05085,0 0,15.18644 0,15.18644 -167.05085,0 -167.050843,0 0,-15.18644 z"
     id="path4779"
     inkscape:connector-curvature="0" />
  <path
     style="fill:#ffffff;fill-opacity:1;stroke:none"
     d="m 357.5322,297.87119 0,-65.08475 30.37288,0 30.37289,0 0,65.08475 0,65.08474 -30.37289,0 -30.37288,0 0,-65.08474 z"
     id="path4781"
     inkscape:connector-curvature="0" />
  <path
     style="fill:#ffffff;fill-opacity:1;stroke:none"
     d="m 438.88814,353.19322 0,-9.76271 9.76271,0 9.76271,0 0,9.76271 0,9.76271 -9.76271,0 -9.76271,0 0,-9.76271 z"
     id="path4783"
     inkscape:connector-curvature="0" />
  <path
     style="fill:#ffffff;fill-opacity:1;stroke:none"
     d="m 438.88814,398.21017 0,-15.72881 9.76271,0 9.76271,0 0,15.72881 0,15.72881 -9.76271,0 -9.76271,0 0,-15.72881 z"
     id="path4785"
     inkscape:connector-curvature="0" />
  <path
     style="fill:#ffffff;fill-opacity:1;stroke:none"
     d="m 438.88814,441.6 0,-8.13559 9.76271,0 9.76271,0 0,8.13559 0,8.13559 -9.76271,0 -9.76271,0 0,-8.13559 z"
     id="path4787"
     inkscape:connector-curvature="0" />
  <path
     style="fill:#ffffff;fill-opacity:1;stroke:none"
     d="m 159.5661,317.94578 c -0.59661,-0.19767 -2.41816,-0.65322 -4.0479,-1.01233 -3.65267,-0.80487 -10.15397,-6.38268 -12.31876,-10.56893 -1.76333,-3.4099 -2.26084,-10.93511 -0.9971,-15.08194 2.31978,-7.61219 10.99685,-14.02156 18.98251,-14.02156 12.67447,0 21.30832,9.25525 20.39626,21.86423 -0.50316,6.95613 -4.21005,12.86324 -10.19781,16.25071 -3.16441,1.79021 -9.80901,3.23517 -11.8172,2.56982 z"
     id="path4789"
     inkscape:connector-curvature="0" />
  <path
     style="fill:#ffffff;fill-opacity:1;stroke:none"
     d="m 187.22712,345.99249 0,-16.96343 4.43564,-4.81211 c 13.65967,-14.81899 13.50119,-38.30136 -0.3648,-54.05395 l -4.07084,-4.62472 0,-16.37592 0,-16.37592 32.54237,0 32.54237,0 0,65.08475 0,65.08474 -32.54237,0 -32.54237,0 0,-16.96344 z"
     id="path4791"
     inkscape:connector-curvature="0" />
  <path
     style="fill:#ffffff;fill-opacity:1;stroke:none"
     d="m 271.83729,297.87119 0,-65.08475 33.08474,0 33.08475,0 0,65.08475 0,65.08474 -33.08475,0 -33.08474,0 0,-65.08474 z"
     id="path4793"
     inkscape:connector-curvature="0" />
  <path
     style="fill:#ffffff;fill-opacity:1;stroke:none"
     d="m 104.78644,297.87119 0,-65.08475 31.45763,0 31.45762,0 0,12.60103 0,12.60104 -2.96781,-0.56734 c -1.63231,-0.31203 -5.90349,-0.0971 -9.49153,0.47767 -32.27191,5.16948 -45.15368,44.92148 -22.07539,68.12269 7.08984,7.12759 16.71628,11.24236 26.56076,11.35324 l 7.95826,0.0896 0.008,12.74576 0.008,12.74576 -31.45762,0 -31.45763,0 0,-65.08474 z"
     id="path4795"
     inkscape:connector-curvature="0" />
  <path
     style="fill:#ffffff;fill-opacity:1;stroke:none"
     d="m 85.261017,397.6678 0,-15.18644 167.050843,0 167.05085,0 0,15.18644 0,15.18644 -167.05085,0 -167.050843,0 0,-15.18644 z"
     id="path4799"
     inkscape:connector-curvature="0" />
  <path
     style="fill:#ffffff;fill-opacity:1;stroke:none"
     d="m 104.78644,462.75254 0,-29.28813 31.45763,0 31.45762,0 0,29.28813 0,29.28814 -31.45762,0 -31.45763,0 0,-29.28814 z"
     id="path4801"
     inkscape:connector-curvature="0" />
  <path
     style="fill:#ffffff;fill-opacity:1;stroke:none"
     d="m 187.22712,462.75254 0,-29.28813 32.54237,0 32.54237,0 0,29.28813 0,29.28814 -32.54237,0 -32.54237,0 0,-29.28814 z"
     id="path4803"
     inkscape:connector-curvature="0" />
  <path
     style="fill:#ffffff;fill-opacity:1;stroke:none"
     d="m 271.83729,462.75254 0,-29.28813 33.08474,0 33.08475,0 0,29.28813 0,29.28814 -33.08475,0 -33.08474,0 0,-29.28814 z"
     id="path4805"
     inkscape:connector-curvature="0" />
  <path
     style="fill:#ffffff;fill-opacity:1;stroke:none"
     d="m 357.5322,462.75254 0,-29.28813 30.37288,0 30.37289,0 0,29.28813 0,29.28814 -30.37289,0 -30.37288,0 0,-29.28814 z"
     id="path4807"
     inkscape:connector-curvature="0" />
</svg>
