<?xml version="1.0" encoding="UTF-8" standalone="no"?>
<svg
   xmlns:dc="http://purl.org/dc/elements/1.1/"
   xmlns:cc="http://creativecommons.org/ns#"
   xmlns:rdf="http://www.w3.org/1999/02/22-rdf-syntax-ns#"
   xmlns:svg="http://www.w3.org/2000/svg"
   xmlns="http://www.w3.org/2000/svg"
   xmlns:sodipodi="http://sodipodi.sourceforge.net/DTD/sodipodi-0.dtd"
   xmlns:inkscape="http://www.inkscape.org/namespaces/inkscape"
   viewBox="0 0 512 512"
   id="svg4882"
   version="1.1"
   inkscape:version="0.48.2 r9819"
   width="100%"
   height="100%"
   sodipodi:docname="quests.svg">
  <metadata
     id="metadata4918">
    <rdf:RDF>
      <cc:Work
         rdf:about="">
        <dc:format>image/svg+xml</dc:format>
        <dc:type
           rdf:resource="http://purl.org/dc/dcmitype/StillImage" />
      </cc:Work>
    </rdf:RDF>
  </metadata>
  <defs
     id="defs4916" />
  <sodipodi:namedview
     pagecolor="#000000"
     bordercolor="#666666"
     borderopacity="1"
     objecttolerance="10"
     gridtolerance="10"
     guidetolerance="10"
     inkscape:pageopacity="1"
     inkscape:pageshadow="2"
     inkscape:window-width="1920"
     inkscape:window-height="1152"
     id="namedview4914"
     showgrid="false"
     inkscape:zoom="0.4609375"
     inkscape:cx="256"
     inkscape:cy="256"
     inkscape:window-x="0"
     inkscape:window-y="0"
     inkscape:window-maximized="1"
     inkscape:current-layer="svg4882" />
  <path
     style="fill:#ffffff;fill-opacity:1;stroke:none"
     d="m 230.18305,272.54745 c -30.67951,-8.1631 -52.99443,-21.62263 -75.6292,-45.61667 -14.21131,-15.06474 -14.32018,-15.27293 -10.16135,-19.43175 8.96048,-8.96049 11.86324,-17.84954 11.81903,-36.19317 -0.0372,-15.4457 -0.91538,-19.42981 -7.0123,-31.8144 -10.78039,-21.89809 -27.68025,-33.69085 -43.69213,-30.48847 -5.658152,1.13163 -5.996867,0.71235 -7.339836,-9.085682 -4.635328,-33.818405 0.575957,-45.429146 26.128406,-58.214075 56.83451,-28.436619 187.27505,-31.9228849 258.84426,-6.918095 17.3958,6.077732 29.81042,13.63568 37.59585,22.88816 5.09881,6.059583 5.78341,8.725463 5.76237,22.438919 -0.013,8.559297 -0.6113,19.114299 -1.32927,23.455563 -1.29957,7.85803 -1.33945,7.88379 -8.94703,5.78323 -17.98374,-4.96555 -40.27999,13.01374 -48.28713,38.93788 -7.43836,24.08263 -4.41092,46.57334 8.01503,59.54325 l 5.66594,5.91396 -7.37734,8.23681 c -40.05628,44.72286 -94.36552,63.78583 -144.0553,50.56454 z m 51.44908,-33.79276 c 13.95129,-10.37328 23.0316,-35.03047 20.2294,-54.93209 -1.952,-13.86342 -10.98265,-31.79368 -18.82584,-37.37852 -26.85881,-19.12517 -57.42876,1.45172 -59.94451,40.34914 -1.58889,24.56692 5.43483,42.00642 21.24519,52.75054 6.22859,4.23272 9.63619,4.97861 19.57237,4.28429 7.44318,-0.52014 14.2015,-2.45472 17.72339,-5.07336 z m 52.81143,-132.03235 c 36.37014,-6.17788 66.99746,-17.964784 73.84828,-28.420468 3.25259,-4.964053 3.25847,-5.84087 0.072,-10.704169 -3.22159,-4.916587 -23.54493,-16.004368 -36.07912,-19.683584 l -5.42373,-1.592051 5.28909,5.724672 c 21.02311,22.754458 -47.08383,45.405236 -125.69587,41.803513 -46.34539,-2.123379 -79.07366,-10.59349 -93.84042,-24.286004 -7.13734,-6.618112 -7.38144,-9.458716 -1.45975,-16.986928 2.47305,-3.143968 4.18152,-5.715812 3.79661,-5.715211 -3.03891,0.0048 -25.32073,9.784763 -32.23057,14.146756 -23.084874,14.572841 -0.44495,31.939683 56.74388,43.527624 9.64386,1.95409 24.51273,4.35506 33.04193,5.33548 23.24537,2.67201 99.21736,0.70967 121.93764,-3.14963 z"
     id="path4920"
     inkscape:connector-curvature="0" />
  <path
     style="fill:#ffffff;fill-opacity:1;stroke:none"
     d="m 98.699546,162.75175 c -2.280999,-10.19257 -2.218929,-13.66783 0.375121,-21.00276 1.709613,-4.83409 4.825283,-9.85638 6.923713,-11.16065 7.99423,-4.96876 22.61037,9.26616 28.00616,27.27571 2.65706,8.86848 1.24539,12.96554 -3.00341,8.71674 -4.43886,-4.43886 -16.07249,-2.97152 -23.06064,2.90862 l -6.50768,5.47585 -2.733264,-12.21351 z"
     id="path4924"
     inkscape:connector-curvature="0" />
  <path
     style="fill:#ffffff;fill-opacity:1;stroke:none"
     d="m 278.13213,200.2723 c -4.64108,-9.82774 -22.69139,-12.39294 -30.71877,-4.36556 -4.77839,4.77839 -6.02947,2.24095 -4.36563,-8.85435 1.50114,-10.01028 8.26199,-22.01435 14.62786,-25.97214 10.4635,-6.50536 24.37011,13.32105 23.00633,32.79972 -0.52791,7.54013 -1.20552,9.2389 -2.54979,6.39233 z"
     id="path4926"
     inkscape:connector-curvature="0" />
  <path
     style="fill:#ffffff;fill-opacity:1;stroke:none"
     d="m 414.68621,175.16467 c -2.4327,-7.66476 -10.84453,-11.88124 -20.98857,-10.52063 l -8.86842,1.1895 1.36812,-6.84059 c 2.9743,-14.87148 18.49969,-31.40208 26.9682,-28.71428 9.2976,2.95095 12.72586,26.58666 6.1312,42.27074 -2.88216,6.85464 -3.2066,7.03867 -4.61053,2.61526 l 0,0 z"
     id="path4928"
     inkscape:connector-curvature="0" />
  <path
     style="fill:#ffffff;fill-opacity:1;stroke:none"
     d="m 229.40437,306.79326 c -9.0765,-2.02668 -9.40354,-2.37708 -8.13559,-8.71682 0.72658,-3.63289 1.32105,-7.3808 1.32105,-8.32868 0,-0.94789 3.66102,-0.68557 8.13559,0.58292 9.30996,2.63926 50.86038,3.41244 59.39492,1.10522 5.11783,-1.38354 5.83952,-0.84339 7.06592,5.28861 0.75125,3.75625 0.94833,7.24711 0.43797,7.75748 -4.72553,4.72553 -50.46716,6.27524 -68.21986,2.31127 z"
     id="path4932"
     inkscape:connector-curvature="0" />
  <path
     style="fill:#ffffff;fill-opacity:1;stroke:none"
     d="m 222.56794,438.4084 c -19.03507,-2.96912 -39.04967,-9.52108 -46.57427,-15.2465 -3.53693,-2.69123 -3.82921,-3.92205 -1.66307,-7.00331 15.87683,-22.58433 28.24783,-49.16002 36.38064,-78.15384 2.59227,-9.24156 4.73956,-13.3225 6.62856,-12.59762 1.53677,0.58972 10.91282,2.19629 20.83564,3.57016 17.60253,2.43716 42.42508,1.55218 58.54132,-2.08713 l 7.95744,-1.79693 6.87161,19.67825 c 8.08486,23.15266 19.00387,45.46907 30.6328,62.60768 l 8.35583,12.31475 -7.26122,4.48768 c -24.29813,15.01707 -76.32555,21.14923 -120.70528,14.22681 z"
     id="path4934"
     inkscape:connector-curvature="0" />
  <path
     style="fill:#ffffff;fill-opacity:1;stroke:none"
     d="m 222.24575,487.19535 c -40.09851,-4.21178 -83.21883,-17.8836 -89.37535,-28.33753 -3.81447,-6.47705 0.453,-14.8742 10.93855,-21.52395 l 10.04144,-6.36809 5.09486,5.49745 c 6.47166,6.98303 23.57205,14.82859 43.03441,19.74394 21.8266,5.51245 95.32595,5.51245 117.15254,0 19.41048,-4.90224 36.55886,-12.7567 42.98141,-19.68674 l 5.04185,-5.44025 11.78498,7.06022 c 9.82507,5.88607 11.89758,8.20679 12.46202,13.95451 0.60453,6.15619 -0.44065,7.60341 -9.76271,13.51819 -21.25499,13.48608 -58.46962,21.28848 -108.06687,22.65724 -17.8983,0.49394 -40.99551,0.0102 -51.32713,-1.07499 l 0,0 z"
     id="path4936"
     inkscape:connector-curvature="0" />
</svg>
