<?xml version="1.0" encoding="UTF-8" standalone="no"?>
<svg
   xmlns:dc="http://purl.org/dc/elements/1.1/"
   xmlns:cc="http://creativecommons.org/ns#"
   xmlns:rdf="http://www.w3.org/1999/02/22-rdf-syntax-ns#"
   xmlns:svg="http://www.w3.org/2000/svg"
   xmlns="http://www.w3.org/2000/svg"
   xmlns:sodipodi="http://sodipodi.sourceforge.net/DTD/sodipodi-0.dtd"
   xmlns:inkscape="http://www.inkscape.org/namespaces/inkscape"
   viewBox="0 0 512 512"
   id="svg4445"
   version="1.1"
   inkscape:version="0.48.2 r9819"
   width="100%"
   height="100%"
   sodipodi:docname="skills.svg">
  <metadata
     id="metadata4475">
    <rdf:RDF>
      <cc:Work
         rdf:about="">
        <dc:format>image/svg+xml</dc:format>
        <dc:type
           rdf:resource="http://purl.org/dc/dcmitype/StillImage" />
      </cc:Work>
    </rdf:RDF>
  </metadata>
  <defs
     id="defs4473" />
  <sodipodi:namedview
     pagecolor="#000000"
     bordercolor="#666666"
     borderopacity="1"
     objecttolerance="10"
     gridtolerance="10"
     guidetolerance="10"
     inkscape:pageopacity="1"
     inkscape:pageshadow="2"
     inkscape:window-width="1920"
     inkscape:window-height="1152"
     id="namedview4471"
     showgrid="false"
     inkscape:zoom="0.4609375"
     inkscape:cx="256"
     inkscape:cy="256"
     inkscape:window-x="0"
     inkscape:window-y="0"
     inkscape:window-maximized="1"
     inkscape:current-layer="svg4445" />
  <path
     style="fill:#ffffff;fill-opacity:1;stroke:none"
     d="m 186.54701,476.23593 c 5.45523,-6.06752 13.1118,-17.51593 17.01461,-25.44091 6.42617,-13.04886 7.09601,-16.25693 7.09601,-33.98508 0,-15.62473 -1.03614,-22.09398 -5.13333,-32.05062 -2.82333,-6.86101 -5.86129,-12.47457 -6.75103,-12.47457 -0.88973,0 -9.78585,10.73898 -19.76915,23.8644 -9.9833,13.12543 -18.78734,23.86441 -19.56454,23.86441 -3.97525,0 -94.640581,-44.12481 -98.913505,-48.13901 -9.004514,-8.45931 -4.637195,-26.66654 7.958843,-33.1802 11.062674,-5.72073 20.675439,-4.00691 50.368652,8.98002 23.80991,10.41375 28.47423,11.80927 30.81777,9.22034 1.51881,-1.67785 10.85821,-15.74217 20.75421,-31.25403 24.85137,-38.95422 30.25392,-44.17172 54.98804,-53.10462 l 6.078,-2.19511 -6.91675,-10.05315 c -25.65491,-37.28814 -12.57392,-91.73248 23.00345,-95.74257 26.34891,-2.9699 53.29057,24.09475 58.37885,58.64537 1.82489,12.39142 -1.76503,31.60706 -7.82321,41.8749 l -4.33191,7.34205 6.15661,2.68317 c 16.87582,7.35479 22.35127,13.22683 45.31705,48.59936 12.70446,19.56774 23.85729,35.57772 24.7841,35.57772 0.92679,0 7.19892,-2.43849 13.93805,-5.41886 l 12.25298,-5.41885 9.15372,5.77847 c 11.72608,7.40236 35.24916,9.54062 47.70464,4.33639 l 8.12473,-3.39473 0,5.99188 c 0,3.77487 -2.20746,7.99951 -5.9661,11.41788 -8.03734,7.30974 -97.80667,48.75293 -100.0568,46.19254 -0.96345,-1.09624 -9.43197,-12.12542 -18.81897,-24.50924 l -17.06726,-22.51607 -3.96963,9.34686 c -14.70878,34.63331 -9.19118,66.67956 17.07004,99.14288 l 5.70379,7.05085 -80.75028,0 -80.75027,0 9.91859,-11.03187 0,0 z"
     id="path4477"
     inkscape:connector-curvature="0" />
  <path
     style="fill:#ffffff;fill-opacity:1;stroke:none"
     d="m 420.40326,338.26331 c -16.52372,-8.14257 -23.47181,-26.73726 -15.83639,-42.38181 11.66497,-23.90087 40.81823,-25.76188 57.19071,-3.65078 5.46283,7.37757 5.53632,23.51224 0.14985,32.89997 -4.42912,7.71923 -20.07373,16.81001 -28.79424,16.73178 -3.02853,-0.0272 -8.748,-1.64679 -12.70993,-3.59916 z"
     id="path4479"
     inkscape:connector-curvature="0" />
  <path
     style="fill:#ffffff;fill-opacity:1;stroke:none"
     d="m 403.74237,169.35907 c -15.67797,-5.36473 -25.20252,-21.91785 -21.72406,-37.75518 2.08139,-9.47648 13.69892,-20.95989 24.01499,-23.73772 11.74,-3.16125 22.07998,-0.0467 31.24816,9.4125 6.00225,6.19274 7.47757,9.59841 8.2326,19.00426 0.75523,9.40835 0.0115,12.78283 -4.15472,18.85318 -10.00309,14.57462 -22.63333,19.3501 -37.61697,14.22296 z"
     id="path4481"
     inkscape:connector-curvature="0" />
  <path
     style="fill:#ffffff;fill-opacity:1;stroke:none"
     d="M 269.12634,85.029758 C 254.23766,78.544653 245.83272,60.806734 250.6837,46.108121 c 11.73641,-35.561685 62.98632,-27.711622 63.01667,9.652404 0.0187,23.000886 -23.50388,38.446815 -44.57403,29.269233 z"
     id="path4483"
     inkscape:connector-curvature="0" />
  <path
     style="fill:#ffffff;fill-opacity:1;stroke:none"
     d="m 113.55505,144.00168 c -10.59385,-6.14025 -17.841789,-20.4303 -16.028803,-31.60242 1.546796,-9.53179 6.876133,-17.180026 16.566943,-23.775531 19.81785,-13.487906 47.75088,2.693077 47.75088,27.661021 0,25.16114 -26.47776,40.35885 -48.28902,27.71693 z"
     id="path4485"
     inkscape:connector-curvature="0" />
  <path
     style="fill:#ffffff;fill-opacity:1;stroke:none"
     d="M 71.247967,285.5168 C 50.124753,272.63782 50.553569,242.18449 72.036015,229.55178 99.30977,213.51349 130.8419,244.24674 115.854,272.25961 107.00466,288.79933 86.585298,294.86809 71.247967,285.5168 z"
     id="path4487"
     inkscape:connector-curvature="0" />
</svg>
